<svg width="298" height="272" viewBox="0 0 298 272" fill="none" xmlns="http://www.w3.org/2000/svg">
<path id="Black Tri 2" d="M221.638 61.0156L294.464 185.236H148.812L221.638 61.0156Z" fill="white" stroke="#967E76" stroke-width="6.24222" stroke-linejoin="round"/>
<path id="White Tri 1" d="M148.81 4L252.847 185.232H44.7734L148.81 4Z" fill="white" stroke="#A7A7A7" stroke-width="6.24222" stroke-linejoin="bevel"/>
<path id="Vector" d="M164.836 34.2734L137.926 67.5907M166.268 85.6789L138.041 67.7961M124.915 110L166.731 86.0523M191.85 144.725L122.805 184.191M125.466 110.42L191.704 144.595" stroke="#FFB905" stroke-width="7.28259" stroke-linecap="round"/>
<path id="Black Tri 1" d="M148.81 4L252.847 185.232H44.7734L148.81 4Z" stroke="#967E76" stroke-width="6.24222" stroke-linejoin="round"/>
<path id="Black Tri 3" d="M55.1825 95.7578L107.201 185.23H3.16406L55.1825 95.7578Z" fill="white" stroke="#967E76" stroke-width="6.24222" stroke-linejoin="round"/>
<path id="BOURG-D&#226;&#128;&#153;OISANS" d="M3.88766 230.688C3.14608 230.688 2.57305 230.496 2.16855 230.114C1.78653 229.71 1.59551 229.137 1.59551 228.395V209.216C1.59551 208.474 1.78653 207.912 2.16855 207.53C2.57305 207.126 3.14608 206.923 3.88766 206.923H11.9776C13.6405 206.923 15.0562 207.171 16.2248 207.665C17.3933 208.159 18.281 208.867 18.8877 209.789C19.5169 210.71 19.8315 211.811 19.8315 213.092C19.8315 214.53 19.4158 215.744 18.5843 216.732C17.7529 217.721 16.618 218.384 15.1798 218.721V218.216C16.8428 218.463 18.1349 219.092 19.0562 220.103C19.9776 221.114 20.4383 222.429 20.4383 224.047C20.4383 226.159 19.7192 227.8 18.281 228.968C16.8652 230.114 14.8877 230.688 12.3484 230.688H3.88766ZM5.74159 227.418H11.809C13.3371 227.418 14.4607 227.126 15.1798 226.541C15.8989 225.935 16.2585 225.036 16.2585 223.845C16.2585 222.631 15.8989 221.732 15.1798 221.148C14.4607 220.564 13.3371 220.272 11.809 220.272H5.74159V227.418ZM5.74159 217.002H11.236C12.7191 217.002 13.8203 216.721 14.5394 216.159C15.281 215.575 15.6517 214.721 15.6517 213.598C15.6517 212.474 15.281 211.631 14.5394 211.069C13.8203 210.485 12.7191 210.193 11.236 210.193H5.74159V217.002ZM35.4544 231.025C33.1622 231.025 31.151 230.519 29.4207 229.508C27.7128 228.496 26.3869 227.081 25.4431 225.261C24.4993 223.418 24.0274 221.261 24.0274 218.789C24.0274 216.923 24.297 215.249 24.8364 213.766C25.3757 212.26 26.1397 210.98 27.1285 209.923C28.1398 208.845 29.342 208.025 30.7353 207.463C32.151 206.878 33.724 206.586 35.4544 206.586C37.769 206.586 39.7802 207.092 41.4881 208.103C43.196 209.092 44.5218 210.496 45.4657 212.317C46.4095 214.137 46.8814 216.283 46.8814 218.755C46.8814 220.62 46.6117 222.305 46.0724 223.811C45.5331 225.317 44.7578 226.609 43.7465 227.687C42.7578 228.766 41.5555 229.598 40.1398 230.182C38.7465 230.744 37.1847 231.025 35.4544 231.025ZM35.4544 227.317C36.9151 227.317 38.151 226.98 39.1623 226.305C40.196 225.631 40.9825 224.654 41.5218 223.373C42.0836 222.092 42.3645 220.564 42.3645 218.789C42.3645 216.092 41.7578 214.002 40.5443 212.519C39.3533 211.036 37.6566 210.294 35.4544 210.294C34.0162 210.294 32.7802 210.631 31.7465 211.305C30.7128 211.957 29.915 212.923 29.3532 214.204C28.8139 215.463 28.5442 216.991 28.5442 218.789C28.5442 221.463 29.151 223.553 30.3645 225.058C31.578 226.564 33.2746 227.317 35.4544 227.317ZM61.1451 231.025C59.5047 231.025 58.0552 230.811 56.7968 230.384C55.5608 229.957 54.5159 229.328 53.662 228.496C52.808 227.643 52.1676 226.586 51.7406 225.328C51.3136 224.07 51.1002 222.609 51.1002 220.946V208.845C51.1002 208.103 51.2799 207.553 51.6395 207.193C52.0215 206.833 52.5608 206.654 53.2575 206.654C53.9541 206.654 54.4822 206.833 54.8417 207.193C55.2238 207.553 55.4148 208.103 55.4148 208.845V220.912C55.4148 223.047 55.8979 224.654 56.8642 225.732C57.853 226.789 59.28 227.317 61.1451 227.317C63.0103 227.317 64.426 226.789 65.3923 225.732C66.3586 224.654 66.8418 223.047 66.8418 220.912V208.845C66.8418 208.103 67.0216 207.553 67.3811 207.193C67.7631 206.833 68.3025 206.654 68.9991 206.654C69.6732 206.654 70.1901 206.833 70.5497 207.193C70.9317 207.553 71.1227 208.103 71.1227 208.845V220.946C71.1227 223.148 70.7407 225.002 69.9766 226.508C69.235 228.013 68.1227 229.148 66.6395 229.912C65.1564 230.654 63.3249 231.025 61.1451 231.025ZM78.312 230.957C77.6153 230.957 77.076 230.766 76.694 230.384C76.3344 229.98 76.1547 229.429 76.1547 228.732V209.114C76.1547 208.395 76.3457 207.856 76.7277 207.496C77.1097 207.114 77.649 206.923 78.3457 206.923H86.4693C89.076 206.923 91.0873 207.553 92.503 208.811C93.9188 210.047 94.6266 211.789 94.6266 214.036C94.6266 215.496 94.3008 216.755 93.6491 217.811C93.0199 218.867 92.0985 219.676 90.885 220.238C89.6716 220.8 88.1996 221.081 86.4693 221.081L86.7727 220.575H87.885C88.8064 220.575 89.6041 220.8 90.2783 221.249C90.9749 221.699 91.5817 222.407 92.0985 223.373L94.6266 228.058C94.8963 228.53 95.0199 228.991 94.9974 229.44C94.9749 229.89 94.8064 230.261 94.4918 230.553C94.1772 230.822 93.7165 230.957 93.1098 230.957C92.503 230.957 92.0086 230.834 91.6266 230.586C91.2446 230.317 90.9075 229.912 90.6154 229.373L87.2109 223.103C86.8064 222.339 86.3232 221.834 85.7614 221.586C85.2221 221.317 84.5255 221.182 83.6715 221.182H80.4693V228.732C80.4693 229.429 80.2895 229.98 79.93 230.384C79.5704 230.766 79.0311 230.957 78.312 230.957ZM80.4693 217.98H85.7277C87.2783 217.98 88.4468 217.665 89.2334 217.036C90.0423 216.384 90.4468 215.418 90.4468 214.137C90.4468 212.878 90.0423 211.935 89.2334 211.305C88.4468 210.654 87.2783 210.328 85.7277 210.328H80.4693V217.98ZM110.525 231.025C107.896 231.025 105.672 230.53 103.851 229.541C102.054 228.553 100.683 227.148 99.7389 225.328C98.7951 223.508 98.3232 221.35 98.3232 218.856C98.3232 216.968 98.5928 215.272 99.1322 213.766C99.694 212.26 100.492 210.98 101.525 209.923C102.582 208.845 103.863 208.025 105.368 207.463C106.874 206.878 108.582 206.586 110.492 206.586C111.75 206.586 113.009 206.744 114.267 207.058C115.548 207.35 116.75 207.856 117.874 208.575C118.256 208.822 118.503 209.126 118.615 209.485C118.75 209.845 118.773 210.216 118.683 210.598C118.593 210.957 118.424 211.272 118.177 211.541C117.93 211.811 117.615 211.98 117.233 212.047C116.874 212.114 116.469 212.025 116.02 211.777C115.166 211.283 114.301 210.923 113.424 210.699C112.548 210.474 111.57 210.362 110.492 210.362C108.829 210.362 107.424 210.699 106.278 211.373C105.132 212.025 104.267 212.98 103.683 214.238C103.121 215.496 102.84 217.036 102.84 218.856C102.84 221.62 103.503 223.721 104.829 225.159C106.155 226.598 108.121 227.317 110.728 227.317C111.627 227.317 112.537 227.227 113.458 227.047C114.379 226.867 115.278 226.62 116.155 226.305L115.312 228.227V221.047H111.604C111.042 221.047 110.604 220.901 110.29 220.609C109.997 220.317 109.851 219.923 109.851 219.429C109.851 218.912 109.997 218.519 110.29 218.249C110.604 217.98 111.042 217.845 111.604 217.845H117.166C117.728 217.845 118.155 218.002 118.447 218.317C118.761 218.609 118.919 219.036 118.919 219.598V227.789C118.919 228.283 118.818 228.699 118.615 229.036C118.436 229.373 118.132 229.62 117.705 229.777C116.716 230.137 115.582 230.44 114.301 230.688C113.02 230.912 111.761 231.025 110.525 231.025ZM125.065 223.339C124.57 223.339 124.155 223.182 123.817 222.867C123.503 222.53 123.346 222.126 123.346 221.654C123.346 221.159 123.503 220.755 123.817 220.44C124.155 220.126 124.57 219.968 125.065 219.968H132.244C132.716 219.968 133.11 220.126 133.424 220.44C133.761 220.755 133.93 221.159 133.93 221.654C133.93 222.126 133.761 222.53 133.424 222.867C133.11 223.182 132.716 223.339 132.244 223.339H125.065ZM140.826 230.688C140.085 230.688 139.512 230.496 139.107 230.114C138.725 229.71 138.534 229.137 138.534 228.395V209.216C138.534 208.474 138.725 207.912 139.107 207.53C139.512 207.126 140.085 206.923 140.826 206.923H147.366C151.343 206.923 154.411 207.946 156.568 209.991C158.748 212.036 159.838 214.968 159.838 218.789C159.838 220.699 159.557 222.395 158.995 223.878C158.456 225.339 157.647 226.575 156.568 227.586C155.512 228.598 154.208 229.373 152.658 229.912C151.13 230.429 149.366 230.688 147.366 230.688H140.826ZM142.849 227.114H147.096C148.489 227.114 149.691 226.946 150.703 226.609C151.736 226.249 152.59 225.732 153.265 225.058C153.961 224.362 154.478 223.496 154.815 222.463C155.152 221.407 155.321 220.182 155.321 218.789C155.321 216.002 154.635 213.923 153.265 212.553C151.894 211.182 149.838 210.496 147.096 210.496H142.849V227.114ZM166.203 215.182C165.911 215.541 165.596 215.744 165.259 215.789C164.944 215.834 164.664 215.777 164.416 215.62C164.169 215.44 164.034 215.193 164.012 214.878C163.989 214.541 164.135 214.182 164.45 213.8C164.899 213.238 165.203 212.676 165.36 212.114C165.517 211.553 165.596 211.058 165.596 210.631L165.765 211.744C164.978 211.744 164.338 211.519 163.843 211.069C163.371 210.62 163.135 210.013 163.135 209.249C163.135 208.508 163.36 207.912 163.81 207.463C164.259 206.991 164.866 206.755 165.63 206.755C166.416 206.755 167.034 207.025 167.484 207.564C167.933 208.081 168.158 208.833 168.158 209.822C168.158 210.362 168.102 210.923 167.989 211.508C167.9 212.069 167.708 212.665 167.416 213.294C167.147 213.901 166.742 214.53 166.203 215.182ZM182.96 231.025C180.668 231.025 178.656 230.519 176.926 229.508C175.218 228.496 173.892 227.081 172.948 225.261C172.005 223.418 171.533 221.261 171.533 218.789C171.533 216.923 171.802 215.249 172.342 213.766C172.881 212.26 173.645 210.98 174.634 209.923C175.645 208.845 176.847 208.025 178.241 207.463C179.656 206.878 181.229 206.586 182.96 206.586C185.274 206.586 187.286 207.092 188.993 208.103C190.701 209.092 192.027 210.496 192.971 212.317C193.915 214.137 194.387 216.283 194.387 218.755C194.387 220.62 194.117 222.305 193.578 223.811C193.038 225.317 192.263 226.609 191.252 227.687C190.263 228.766 189.061 229.598 187.645 230.182C186.252 230.744 184.69 231.025 182.96 231.025ZM182.96 227.317C184.42 227.317 185.656 226.98 186.668 226.305C187.701 225.631 188.488 224.654 189.027 223.373C189.589 222.092 189.87 220.564 189.87 218.789C189.87 216.092 189.263 214.002 188.05 212.519C186.859 211.036 185.162 210.294 182.96 210.294C181.521 210.294 180.286 210.631 179.252 211.305C178.218 211.957 177.42 212.923 176.859 214.204C176.319 215.463 176.05 216.991 176.05 218.789C176.05 221.463 176.656 223.553 177.87 225.058C179.083 226.564 180.78 227.317 182.96 227.317ZM200.931 230.957C200.235 230.957 199.695 230.766 199.313 230.384C198.954 229.98 198.774 229.429 198.774 228.732V208.878C198.774 208.159 198.954 207.609 199.313 207.227C199.695 206.845 200.235 206.654 200.931 206.654C201.628 206.654 202.156 206.845 202.516 207.227C202.898 207.609 203.089 208.159 203.089 208.878V228.732C203.089 229.429 202.909 229.98 202.549 230.384C202.19 230.766 201.65 230.957 200.931 230.957ZM216.478 231.025C215.49 231.025 214.501 230.946 213.512 230.789C212.523 230.654 211.591 230.44 210.714 230.148C209.838 229.834 209.051 229.452 208.355 229.002C207.95 228.732 207.669 228.407 207.512 228.025C207.355 227.643 207.299 227.272 207.343 226.912C207.411 226.53 207.557 226.204 207.782 225.935C208.029 225.643 208.332 225.463 208.692 225.395C209.051 225.328 209.445 225.429 209.872 225.699C210.86 226.283 211.905 226.71 213.006 226.98C214.108 227.249 215.265 227.384 216.478 227.384C218.254 227.384 219.546 227.092 220.355 226.508C221.164 225.901 221.568 225.126 221.568 224.182C221.568 223.395 221.276 222.777 220.692 222.328C220.13 221.878 219.152 221.508 217.759 221.216L214.051 220.44C211.916 219.991 210.321 219.238 209.265 218.182C208.231 217.103 207.714 215.687 207.714 213.935C207.714 212.834 207.939 211.834 208.388 210.935C208.838 210.036 209.467 209.26 210.276 208.609C211.108 207.957 212.085 207.463 213.209 207.126C214.355 206.766 215.613 206.586 216.984 206.586C218.332 206.586 219.613 206.755 220.827 207.092C222.04 207.429 223.13 207.923 224.096 208.575C224.456 208.822 224.692 209.126 224.804 209.485C224.939 209.845 224.973 210.204 224.905 210.564C224.838 210.901 224.681 211.193 224.433 211.44C224.186 211.687 223.872 211.834 223.49 211.878C223.13 211.923 222.714 211.811 222.242 211.541C221.411 211.069 220.568 210.732 219.714 210.53C218.86 210.328 217.939 210.227 216.95 210.227C215.917 210.227 215.029 210.373 214.287 210.665C213.546 210.957 212.973 211.373 212.568 211.912C212.186 212.429 211.995 213.047 211.995 213.766C211.995 214.575 212.265 215.227 212.804 215.721C213.343 216.193 214.265 216.564 215.568 216.834L219.242 217.609C221.467 218.081 223.119 218.822 224.197 219.834C225.299 220.845 225.849 222.193 225.849 223.878C225.849 224.957 225.624 225.935 225.175 226.811C224.748 227.687 224.119 228.44 223.287 229.07C222.478 229.699 221.501 230.182 220.355 230.519C219.209 230.856 217.917 231.025 216.478 231.025ZM229.624 230.957C229.084 230.957 228.646 230.834 228.309 230.586C227.994 230.339 227.803 230.013 227.736 229.609C227.669 229.182 227.747 228.71 227.972 228.193L236.871 208.474C237.163 207.822 237.511 207.362 237.916 207.092C238.343 206.8 238.826 206.654 239.365 206.654C239.882 206.654 240.343 206.8 240.747 207.092C241.174 207.362 241.534 207.822 241.826 208.474L250.759 228.193C251.006 228.71 251.096 229.182 251.028 229.609C250.961 230.036 250.77 230.373 250.455 230.62C250.141 230.845 249.725 230.957 249.208 230.957C248.579 230.957 248.084 230.811 247.725 230.519C247.388 230.204 247.084 229.732 246.815 229.103L244.624 224.013L246.444 225.193H232.219L234.039 224.013L231.882 229.103C231.59 229.755 231.287 230.227 230.972 230.519C230.657 230.811 230.208 230.957 229.624 230.957ZM239.298 211.609L234.579 222.834L233.702 221.755H244.961L244.118 222.834L239.365 211.609H239.298ZM256.494 230.957C255.842 230.957 255.336 230.777 254.977 230.418C254.64 230.058 254.471 229.541 254.471 228.867V208.811C254.471 208.114 254.64 207.586 254.977 207.227C255.336 206.845 255.797 206.654 256.359 206.654C256.876 206.654 257.258 206.755 257.505 206.957C257.775 207.137 258.089 207.451 258.449 207.901L271.359 224.654H270.482V208.71C270.482 208.058 270.651 207.553 270.988 207.193C271.348 206.833 271.853 206.654 272.505 206.654C273.157 206.654 273.651 206.833 273.988 207.193C274.325 207.553 274.494 208.058 274.494 208.71V228.935C274.494 229.564 274.336 230.058 274.022 230.418C273.707 230.777 273.28 230.957 272.741 230.957C272.224 230.957 271.808 230.856 271.494 230.654C271.202 230.452 270.876 230.126 270.516 229.676L257.64 212.923H258.482V228.867C258.482 229.541 258.314 230.058 257.977 230.418C257.64 230.777 257.145 230.957 256.494 230.957ZM287.877 231.025C286.889 231.025 285.9 230.946 284.911 230.789C283.922 230.654 282.99 230.44 282.113 230.148C281.237 229.834 280.45 229.452 279.754 229.002C279.349 228.732 279.068 228.407 278.911 228.025C278.754 227.643 278.698 227.272 278.742 226.912C278.81 226.53 278.956 226.204 279.181 225.935C279.428 225.643 279.731 225.463 280.091 225.395C280.45 225.328 280.844 225.429 281.271 225.699C282.259 226.283 283.304 226.71 284.405 226.98C285.507 227.249 286.664 227.384 287.877 227.384C289.653 227.384 290.945 227.092 291.754 226.508C292.563 225.901 292.967 225.126 292.967 224.182C292.967 223.395 292.675 222.777 292.091 222.328C291.529 221.878 290.552 221.508 289.158 221.216L285.45 220.44C283.316 219.991 281.72 219.238 280.664 218.182C279.63 217.103 279.113 215.687 279.113 213.935C279.113 212.834 279.338 211.834 279.787 210.935C280.237 210.036 280.866 209.26 281.675 208.609C282.507 207.957 283.484 207.463 284.608 207.126C285.754 206.766 287.012 206.586 288.383 206.586C289.731 206.586 291.012 206.755 292.226 207.092C293.439 207.429 294.529 207.923 295.495 208.575C295.855 208.822 296.091 209.126 296.203 209.485C296.338 209.845 296.372 210.204 296.304 210.564C296.237 210.901 296.08 211.193 295.832 211.44C295.585 211.687 295.271 211.834 294.889 211.878C294.529 211.923 294.113 211.811 293.641 211.541C292.81 211.069 291.967 210.732 291.113 210.53C290.259 210.328 289.338 210.227 288.349 210.227C287.316 210.227 286.428 210.373 285.686 210.665C284.945 210.957 284.372 211.373 283.967 211.912C283.585 212.429 283.394 213.047 283.394 213.766C283.394 214.575 283.664 215.227 284.203 215.721C284.743 216.193 285.664 216.564 286.967 216.834L290.641 217.609C292.866 218.081 294.518 218.822 295.596 219.834C296.698 220.845 297.248 222.193 297.248 223.878C297.248 224.957 297.023 225.935 296.574 226.811C296.147 227.687 295.518 228.44 294.686 229.07C293.877 229.699 292.9 230.182 291.754 230.519C290.608 230.856 289.316 231.025 287.877 231.025Z" fill="#967E76"/>
<path id="MOUNTAIN BASE" d="M3.87455 271.042C3.21038 271.042 2.70039 270.853 2.34458 270.473C1.98877 270.094 1.81087 269.572 1.81087 268.908V247.524C1.81087 246.836 2.00063 246.314 2.38016 245.958C2.75969 245.579 3.28154 245.389 3.94571 245.389C4.53872 245.389 5.00127 245.507 5.33335 245.745C5.68916 245.958 6.00939 246.338 6.29403 246.883L15.0824 263.144H13.9439L22.7323 246.883C23.0169 246.338 23.3253 245.958 23.6574 245.745C23.9895 245.507 24.452 245.389 25.045 245.389C25.7092 245.389 26.2192 245.579 26.575 245.958C26.9308 246.314 27.1087 246.836 27.1087 247.524V268.908C27.1087 269.572 26.9308 270.094 26.575 270.473C26.2429 270.853 25.7329 271.042 25.045 271.042C24.3809 271.042 23.8709 270.853 23.5151 270.473C23.1593 270.094 22.9814 269.572 22.9814 268.908V252.434H23.7641L16.2922 266.061C16.055 266.464 15.8059 266.761 15.545 266.951C15.2841 267.14 14.9283 267.235 14.4776 267.235C14.0269 267.235 13.6592 267.14 13.3746 266.951C13.0899 266.737 12.8409 266.441 12.6274 266.061L5.08429 252.398H5.93822V268.908C5.93822 269.572 5.76032 270.094 5.40452 270.473C5.07243 270.853 4.56244 271.042 3.87455 271.042ZM43.873 271.114C41.4535 271.114 39.3306 270.58 37.5041 269.512C35.7013 268.445 34.3018 266.951 33.3056 265.029C32.3093 263.084 31.8112 260.807 31.8112 258.198C31.8112 256.229 32.0958 254.462 32.6651 252.896C33.2344 251.307 34.0409 249.955 35.0846 248.84C36.152 247.702 37.4211 246.836 38.8917 246.243C40.3861 245.626 42.0466 245.318 43.873 245.318C46.3162 245.318 48.4392 245.851 50.242 246.919C52.0447 247.962 53.4442 249.445 54.4405 251.366C55.4367 253.288 55.9349 255.553 55.9349 258.162C55.9349 260.131 55.6502 261.91 55.0809 263.499C54.5116 265.089 53.6933 266.453 52.6259 267.591C51.5822 268.73 50.3131 269.607 48.8187 270.224C47.3481 270.817 45.6995 271.114 43.873 271.114ZM43.873 267.2C45.4149 267.2 46.7195 266.844 47.7869 266.132C48.878 265.421 49.7082 264.389 50.2775 263.037C50.8705 261.685 51.1671 260.072 51.1671 258.198C51.1671 255.351 50.5266 253.145 49.2457 251.58C47.9885 250.014 46.1976 249.232 43.873 249.232C42.3549 249.232 41.0503 249.587 39.9592 250.299C38.868 250.987 38.0259 252.007 37.4329 253.359C36.8636 254.687 36.579 256.3 36.579 258.198C36.579 261.021 37.2194 263.227 38.5003 264.816C39.7812 266.405 41.5721 267.2 43.873 267.2ZM70.991 271.114C69.2594 271.114 67.7295 270.888 66.4011 270.438C65.0965 269.987 63.9935 269.323 63.0921 268.445C62.1908 267.544 61.5147 266.429 61.064 265.1C60.6133 263.772 60.388 262.23 60.388 260.475V247.702C60.388 246.919 60.5778 246.338 60.9573 245.958C61.3605 245.579 61.9298 245.389 62.6652 245.389C63.4005 245.389 63.9579 245.579 64.3375 245.958C64.7407 246.338 64.9423 246.919 64.9423 247.702V260.439C64.9423 262.693 65.4523 264.389 66.4723 265.527C67.516 266.642 69.0222 267.2 70.991 267.2C72.9598 267.2 74.4542 266.642 75.4742 265.527C76.4942 264.389 77.0042 262.693 77.0042 260.439V247.702C77.0042 246.919 77.1939 246.338 77.5734 245.958C77.9767 245.579 78.546 245.389 79.2813 245.389C79.9929 245.389 80.5385 245.579 80.918 245.958C81.3213 246.338 81.5229 246.919 81.5229 247.702V260.475C81.5229 262.8 81.1197 264.757 80.3132 266.346C79.5304 267.935 78.3562 269.133 76.7907 269.939C75.2251 270.722 73.2919 271.114 70.991 271.114ZM88.9693 271.042C88.2814 271.042 87.7477 270.853 87.3681 270.473C87.0123 270.094 86.8344 269.548 86.8344 268.836V247.666C86.8344 246.931 87.0123 246.373 87.3681 245.994C87.7477 245.59 88.2339 245.389 88.8269 245.389C89.3725 245.389 89.7758 245.496 90.0367 245.709C90.3213 245.899 90.6534 246.231 91.0329 246.705L104.66 264.389H103.735V247.559C103.735 246.871 103.913 246.338 104.269 245.958C104.648 245.579 105.182 245.389 105.87 245.389C106.558 245.389 107.08 245.579 107.436 245.958C107.791 246.338 107.969 246.871 107.969 247.559V268.908C107.969 269.572 107.803 270.094 107.471 270.473C107.139 270.853 106.688 271.042 106.119 271.042C105.574 271.042 105.135 270.936 104.803 270.722C104.494 270.509 104.15 270.165 103.771 269.69L90.179 252.007H91.0685V268.836C91.0685 269.548 90.8906 270.094 90.5348 270.473C90.179 270.853 89.6572 271.042 88.9693 271.042ZM121.776 271.042C121.041 271.042 120.472 270.841 120.068 270.438C119.689 270.011 119.499 269.429 119.499 268.694V249.481H112.561C111.944 249.481 111.458 249.315 111.102 248.982C110.77 248.627 110.604 248.152 110.604 247.559C110.604 246.943 110.77 246.48 111.102 246.172C111.458 245.84 111.944 245.673 112.561 245.673H130.992C131.608 245.673 132.083 245.84 132.415 246.172C132.771 246.48 132.949 246.943 132.949 247.559C132.949 248.152 132.771 248.627 132.415 248.982C132.083 249.315 131.608 249.481 130.992 249.481H124.053V268.694C124.053 269.429 123.864 270.011 123.484 270.438C123.105 270.841 122.535 271.042 121.776 271.042ZM133.019 271.042C132.449 271.042 131.987 270.912 131.631 270.651C131.299 270.39 131.097 270.046 131.026 269.619C130.955 269.169 131.038 268.67 131.275 268.125L140.668 247.31C140.977 246.622 141.345 246.136 141.771 245.851C142.222 245.543 142.732 245.389 143.301 245.389C143.847 245.389 144.333 245.543 144.76 245.851C145.211 246.136 145.59 246.622 145.899 247.31L155.328 268.125C155.589 268.67 155.684 269.169 155.612 269.619C155.541 270.07 155.34 270.426 155.007 270.687C154.675 270.924 154.237 271.042 153.691 271.042C153.027 271.042 152.505 270.888 152.125 270.58C151.77 270.248 151.449 269.75 151.165 269.086L148.852 263.713L150.773 264.958H135.758L137.68 263.713L135.403 269.086C135.094 269.773 134.774 270.272 134.442 270.58C134.11 270.888 133.635 271.042 133.019 271.042ZM143.23 250.619L138.249 262.468L137.324 261.329H149.208L148.318 262.468L143.301 250.619H143.23ZM161.524 271.042C160.788 271.042 160.219 270.841 159.816 270.438C159.436 270.011 159.247 269.429 159.247 268.694V247.737C159.247 246.978 159.436 246.397 159.816 245.994C160.219 245.59 160.788 245.389 161.524 245.389C162.259 245.389 162.816 245.59 163.196 245.994C163.599 246.397 163.801 246.978 163.801 247.737V268.694C163.801 269.429 163.611 270.011 163.232 270.438C162.852 270.841 162.283 271.042 161.524 271.042ZM171.423 271.042C170.735 271.042 170.202 270.853 169.822 270.473C169.466 270.094 169.288 269.548 169.288 268.836V247.666C169.288 246.931 169.466 246.373 169.822 245.994C170.202 245.59 170.688 245.389 171.281 245.389C171.826 245.389 172.23 245.496 172.491 245.709C172.775 245.899 173.107 246.231 173.487 246.705L187.114 264.389H186.189V247.559C186.189 246.871 186.367 246.338 186.723 245.958C187.102 245.579 187.636 245.389 188.324 245.389C189.012 245.389 189.534 245.579 189.89 245.958C190.245 246.338 190.423 246.871 190.423 247.559V268.908C190.423 269.572 190.257 270.094 189.925 270.473C189.593 270.853 189.142 271.042 188.573 271.042C188.028 271.042 187.589 270.936 187.257 270.722C186.948 270.509 186.604 270.165 186.225 269.69L172.633 252.007H173.522V268.836C173.522 269.548 173.345 270.094 172.989 270.473C172.633 270.853 172.111 271.042 171.423 271.042ZM207.983 270.758C207.201 270.758 206.596 270.556 206.169 270.153C205.766 269.726 205.564 269.121 205.564 268.338V248.093C205.564 247.31 205.766 246.717 206.169 246.314C206.596 245.887 207.201 245.673 207.983 245.673H216.523C218.278 245.673 219.772 245.934 221.006 246.456C222.239 246.978 223.176 247.725 223.817 248.698C224.481 249.67 224.813 250.833 224.813 252.185C224.813 253.703 224.374 254.984 223.497 256.027C222.619 257.071 221.421 257.771 219.903 258.127V257.593C221.658 257.854 223.022 258.518 223.995 259.585C224.967 260.653 225.454 262.041 225.454 263.748C225.454 265.978 224.694 267.71 223.176 268.943C221.682 270.153 219.595 270.758 216.914 270.758H207.983ZM209.94 267.306H216.345C217.958 267.306 219.144 266.998 219.903 266.381C220.662 265.741 221.042 264.792 221.042 263.535C221.042 262.254 220.662 261.305 219.903 260.688C219.144 260.072 217.958 259.763 216.345 259.763H209.94V267.306ZM209.94 256.312H215.74C217.306 256.312 218.468 256.016 219.227 255.423C220.01 254.806 220.401 253.904 220.401 252.718C220.401 251.532 220.01 250.643 219.227 250.05C218.468 249.433 217.306 249.125 215.74 249.125H209.94V256.312ZM230.136 271.042C229.566 271.042 229.104 270.912 228.748 270.651C228.416 270.39 228.214 270.046 228.143 269.619C228.072 269.169 228.155 268.67 228.392 268.125L237.786 247.31C238.094 246.622 238.462 246.136 238.889 245.851C239.339 245.543 239.849 245.389 240.419 245.389C240.964 245.389 241.45 245.543 241.877 245.851C242.328 246.136 242.708 246.622 243.016 247.31L252.445 268.125C252.706 268.67 252.801 269.169 252.729 269.619C252.658 270.07 252.457 270.426 252.125 270.687C251.792 270.924 251.354 271.042 250.808 271.042C250.144 271.042 249.622 270.888 249.243 270.58C248.887 270.248 248.566 269.75 248.282 269.086L245.969 263.713L247.89 264.958H232.875L234.797 263.713L232.52 269.086C232.211 269.773 231.891 270.272 231.559 270.58C231.227 270.888 230.752 271.042 230.136 271.042ZM240.347 250.619L235.366 262.468L234.441 261.329H246.325L245.435 262.468L240.419 250.619H240.347ZM264.732 271.114C263.688 271.114 262.644 271.031 261.601 270.865C260.557 270.722 259.573 270.497 258.647 270.189C257.722 269.856 256.892 269.453 256.157 268.979C255.73 268.694 255.433 268.35 255.267 267.947C255.101 267.544 255.042 267.152 255.089 266.773C255.161 266.37 255.315 266.026 255.552 265.741C255.813 265.433 256.133 265.243 256.513 265.172C256.892 265.1 257.307 265.207 257.758 265.492C258.802 266.109 259.905 266.559 261.067 266.844C262.229 267.129 263.451 267.271 264.732 267.271C266.606 267.271 267.97 266.963 268.824 266.346C269.677 265.705 270.104 264.887 270.104 263.891C270.104 263.061 269.796 262.408 269.179 261.934C268.586 261.459 267.555 261.068 266.084 260.76L262.17 259.941C259.917 259.467 258.232 258.672 257.118 257.557C256.026 256.419 255.481 254.924 255.481 253.074C255.481 251.912 255.718 250.856 256.192 249.908C256.667 248.959 257.331 248.14 258.185 247.452C259.063 246.765 260.094 246.243 261.28 245.887C262.49 245.507 263.819 245.318 265.265 245.318C266.689 245.318 268.041 245.496 269.322 245.851C270.603 246.207 271.753 246.729 272.773 247.417C273.153 247.678 273.402 247.998 273.52 248.378C273.663 248.757 273.698 249.137 273.627 249.516C273.556 249.872 273.39 250.18 273.129 250.441C272.868 250.702 272.536 250.856 272.133 250.904C271.753 250.951 271.314 250.833 270.816 250.548C269.938 250.05 269.049 249.694 268.148 249.481C267.246 249.267 266.274 249.16 265.23 249.16C264.139 249.16 263.202 249.315 262.419 249.623C261.636 249.931 261.031 250.37 260.604 250.939C260.201 251.485 260 252.137 260 252.896C260 253.75 260.284 254.438 260.853 254.96C261.423 255.458 262.395 255.85 263.771 256.134L267.649 256.953C269.998 257.451 271.741 258.233 272.88 259.301C274.042 260.368 274.623 261.791 274.623 263.571C274.623 264.709 274.386 265.741 273.912 266.666C273.461 267.591 272.797 268.386 271.919 269.05C271.065 269.714 270.033 270.224 268.824 270.58C267.614 270.936 266.25 271.114 264.732 271.114ZM280.952 270.758C280.169 270.758 279.564 270.556 279.137 270.153C278.734 269.726 278.532 269.121 278.532 268.338V248.093C278.532 247.31 278.734 246.717 279.137 246.314C279.564 245.887 280.169 245.673 280.952 245.673H293.654C294.247 245.673 294.698 245.828 295.006 246.136C295.338 246.444 295.504 246.883 295.504 247.452C295.504 248.046 295.338 248.508 295.006 248.84C294.698 249.149 294.247 249.303 293.654 249.303H282.908V256.205H292.871C293.488 256.205 293.95 256.36 294.259 256.668C294.567 256.976 294.721 257.427 294.721 258.02C294.721 258.613 294.567 259.064 294.259 259.372C293.95 259.68 293.488 259.835 292.871 259.835H282.908V267.129H293.654C294.247 267.129 294.698 267.283 295.006 267.591C295.338 267.9 295.504 268.35 295.504 268.943C295.504 269.536 295.338 269.987 295.006 270.295C294.698 270.604 294.247 270.758 293.654 270.758H280.952Z" fill="#967E76"/>
</svg>
