<svg width="300" height="273" viewBox="0 0 300 273" fill="none" xmlns="http://www.w3.org/2000/svg">
<path d="M222.867 61.3267L296.095 186.232H149.64L222.867 61.3267Z" fill="white" stroke="black" stroke-width="6.27665" stroke-linejoin="round"/>
<path d="M149.64 4L254.25 186.232H45.0287L149.64 4Z" fill="white" stroke="#A7A7A7" stroke-width="6.27665" stroke-linejoin="bevel"/>
<path d="M165.75 34.4417L138.691 67.9428M167.19 86.1308L138.807 68.1493M125.609 110.586L167.656 86.5062M192.913 145.503L123.487 185.186M126.163 111.008L192.766 145.372" stroke="black" stroke-width="7.32275" stroke-linecap="round"/>
<path d="M149.64 4L254.25 186.232H45.0287L149.64 4Z" stroke="black" stroke-width="6.27665" stroke-linejoin="round"/>
<path d="M55.4898 96.2667L107.795 186.232H3.18443L55.4898 96.2667Z" fill="white" stroke="black" stroke-width="6.27665" stroke-linejoin="round"/>
<path d="M4.05071 231.747C3.30504 231.747 2.72885 231.555 2.32212 231.171C1.93799 230.764 1.74592 230.188 1.74592 229.442V210.157C1.74592 209.411 1.93799 208.846 2.32212 208.462C2.72885 208.055 3.30504 207.852 4.05071 207.852H12.1852C13.8573 207.852 15.2809 208.101 16.4559 208.598C17.6309 209.095 18.5234 209.807 19.1335 210.733C19.7662 211.659 20.0825 212.767 20.0825 214.055C20.0825 215.501 19.6645 216.721 18.8284 217.715C17.9924 218.709 16.8513 219.376 15.4052 219.715V219.206C17.0773 219.455 18.3765 220.088 19.303 221.105C20.2294 222.121 20.6926 223.443 20.6926 225.07C20.6926 227.194 19.9695 228.844 18.5234 230.019C17.0999 231.171 15.1114 231.747 12.5581 231.747H4.05071ZM5.91487 228.46H12.0158C13.5523 228.46 14.6821 228.166 15.4052 227.578C16.1282 226.968 16.4898 226.064 16.4898 224.867C16.4898 223.647 16.1282 222.743 15.4052 222.155C14.6821 221.568 13.5523 221.274 12.0158 221.274H5.91487V228.46ZM5.91487 217.986H11.4396C12.9309 217.986 14.0381 217.704 14.7612 217.139C15.5068 216.551 15.8797 215.693 15.8797 214.563C15.8797 213.433 15.5068 212.586 14.7612 212.021C14.0381 211.433 12.9309 211.14 11.4396 211.14H5.91487V217.986ZM35.7915 232.086C33.4868 232.086 31.4644 231.578 29.7245 230.561C28.0072 229.544 26.6741 228.121 25.7251 226.29C24.776 224.437 24.3015 222.268 24.3015 219.783C24.3015 217.907 24.5727 216.224 25.115 214.732C25.6573 213.219 26.4255 211.931 27.4198 210.869C28.4366 209.784 29.6455 208.959 31.0464 208.394C32.4699 207.807 34.0517 207.513 35.7915 207.513C38.1189 207.513 40.1413 208.021 41.8586 209.038C43.5758 210.033 44.909 211.445 45.858 213.275C46.8071 215.105 47.2816 217.263 47.2816 219.749C47.2816 221.624 47.0104 223.319 46.4681 224.833C45.9258 226.347 45.1463 227.646 44.1294 228.731C43.1352 229.815 41.9263 230.651 40.5028 231.239C39.1018 231.804 37.5314 232.086 35.7915 232.086ZM35.7915 228.358C37.2603 228.358 38.5031 228.019 39.5199 227.341C40.5593 226.663 41.3501 225.68 41.8924 224.392C42.4573 223.104 42.7398 221.568 42.7398 219.783C42.7398 217.071 42.1297 214.97 40.9095 213.478C39.7119 211.987 38.0059 211.241 35.7915 211.241C34.3454 211.241 33.1026 211.58 32.0632 212.258C31.0238 212.914 30.2216 213.885 29.6568 215.173C29.1144 216.438 28.8433 217.975 28.8433 219.783C28.8433 222.472 29.4534 224.573 30.6736 226.087C31.8937 227.601 33.5997 228.358 35.7915 228.358ZM61.624 232.086C59.9745 232.086 58.517 231.872 57.2517 231.442C56.0089 231.013 54.9582 230.38 54.0995 229.544C53.2409 228.685 52.5969 227.623 52.1676 226.358C51.7383 225.093 51.5236 223.624 51.5236 221.952V209.784C51.5236 209.038 51.7044 208.485 52.0659 208.123C52.45 207.762 52.9923 207.581 53.6928 207.581C54.3933 207.581 54.9243 207.762 55.2858 208.123C55.67 208.485 55.862 209.038 55.862 209.784V221.918C55.862 224.065 56.3478 225.68 57.3195 226.765C58.3137 227.827 59.7485 228.358 61.624 228.358C63.4995 228.358 64.923 227.827 65.8946 226.765C66.8662 225.68 67.3521 224.065 67.3521 221.918V209.784C67.3521 209.038 67.5328 208.485 67.8944 208.123C68.2785 207.762 68.8208 207.581 69.5213 207.581C70.1991 207.581 70.7189 207.762 71.0804 208.123C71.4645 208.485 71.6566 209.038 71.6566 209.784V221.952C71.6566 224.166 71.2725 226.03 70.5042 227.544C69.7585 229.058 68.64 230.199 67.1487 230.968C65.6574 231.713 63.8158 232.086 61.624 232.086ZM78.8855 232.018C78.185 232.018 77.6427 231.826 77.2586 231.442C76.8971 231.035 76.7163 230.482 76.7163 229.781V210.055C76.7163 209.332 76.9084 208.79 77.2925 208.428C77.6766 208.044 78.2189 207.852 78.9194 207.852H87.0878C89.709 207.852 91.7313 208.485 93.1548 209.75C94.5784 210.993 95.2902 212.744 95.2902 215.004C95.2902 216.472 94.9625 217.738 94.3072 218.8C93.6746 219.862 92.7481 220.675 91.5279 221.24C90.3078 221.805 88.8277 222.087 87.0878 222.087L87.3929 221.579H88.5114C89.4378 221.579 90.24 221.805 90.9178 222.257C91.6183 222.709 92.2284 223.421 92.7481 224.392L95.2902 229.103C95.5613 229.578 95.6856 230.041 95.663 230.493C95.6404 230.945 95.4709 231.318 95.1546 231.612C94.8382 231.883 94.375 232.018 93.7649 232.018C93.1548 232.018 92.6577 231.894 92.2736 231.646C91.8895 231.374 91.5505 230.968 91.2568 230.425L87.8335 224.121C87.4268 223.353 86.941 222.844 86.3761 222.596C85.8338 222.325 85.1333 222.189 84.2746 222.189H81.0547V229.781C81.0547 230.482 80.874 231.035 80.5124 231.442C80.1509 231.826 79.6086 232.018 78.8855 232.018ZM81.0547 218.969H86.3422C87.9013 218.969 89.0763 218.653 89.8671 218.02C90.6806 217.365 91.0873 216.393 91.0873 215.105C91.0873 213.84 90.6806 212.891 89.8671 212.258C89.0763 211.603 87.9013 211.275 86.3422 211.275H81.0547V218.969ZM111.277 232.086C108.633 232.086 106.396 231.589 104.566 230.595C102.758 229.601 101.38 228.188 100.431 226.358C99.4816 224.528 99.0071 222.359 99.0071 219.85C99.0071 217.952 99.2783 216.246 99.8206 214.732C100.385 213.219 101.188 211.931 102.227 210.869C103.289 209.784 104.577 208.959 106.091 208.394C107.605 207.807 109.322 207.513 111.243 207.513C112.508 207.513 113.774 207.671 115.039 207.988C116.327 208.281 117.536 208.79 118.666 209.513C119.05 209.761 119.298 210.066 119.411 210.428C119.547 210.789 119.569 211.162 119.479 211.546C119.389 211.908 119.219 212.224 118.971 212.495C118.722 212.767 118.406 212.936 118.022 213.004C117.66 213.072 117.253 212.981 116.801 212.733C115.943 212.236 115.073 211.874 114.192 211.648C113.31 211.422 112.327 211.309 111.243 211.309C109.571 211.309 108.158 211.648 107.006 212.326C105.854 212.981 104.984 213.942 104.396 215.207C103.831 216.472 103.549 218.02 103.549 219.85C103.549 222.63 104.215 224.742 105.549 226.189C106.882 227.635 108.859 228.358 111.48 228.358C112.384 228.358 113.299 228.267 114.225 228.087C115.152 227.906 116.056 227.657 116.937 227.341L116.09 229.273V222.054H112.361C111.796 222.054 111.356 221.907 111.039 221.613C110.746 221.319 110.599 220.924 110.599 220.427C110.599 219.907 110.746 219.512 111.039 219.24C111.356 218.969 111.796 218.834 112.361 218.834H117.954C118.519 218.834 118.948 218.992 119.242 219.308C119.558 219.602 119.716 220.031 119.716 220.596V228.832C119.716 229.329 119.615 229.747 119.411 230.086C119.23 230.425 118.925 230.674 118.496 230.832C117.502 231.194 116.361 231.499 115.073 231.747C113.785 231.973 112.519 232.086 111.277 232.086ZM125.896 224.358C125.399 224.358 124.981 224.2 124.642 223.884C124.326 223.545 124.167 223.138 124.167 222.664C124.167 222.167 124.326 221.76 124.642 221.443C124.981 221.127 125.399 220.969 125.896 220.969H133.115C133.59 220.969 133.985 221.127 134.302 221.443C134.641 221.76 134.81 222.167 134.81 222.664C134.81 223.138 134.641 223.545 134.302 223.884C133.985 224.2 133.59 224.358 133.115 224.358H125.896ZM141.745 231.747C140.999 231.747 140.423 231.555 140.016 231.171C139.632 230.764 139.44 230.188 139.44 229.442V210.157C139.44 209.411 139.632 208.846 140.016 208.462C140.423 208.055 140.999 207.852 141.745 207.852H148.32C152.32 207.852 155.404 208.88 157.573 210.936C159.765 212.993 160.861 215.941 160.861 219.783C160.861 221.703 160.578 223.409 160.013 224.901C159.471 226.369 158.658 227.612 157.573 228.629C156.511 229.646 155.201 230.425 153.641 230.968C152.105 231.487 150.331 231.747 148.32 231.747H141.745ZM143.778 228.154H148.049C149.45 228.154 150.659 227.985 151.676 227.646C152.715 227.285 153.574 226.765 154.251 226.087C154.952 225.386 155.472 224.517 155.811 223.477C156.15 222.415 156.319 221.184 156.319 219.783C156.319 216.981 155.63 214.891 154.251 213.512C152.873 212.134 150.806 211.445 148.049 211.445H143.778V228.154ZM167.261 216.156C166.967 216.518 166.651 216.721 166.312 216.766C165.996 216.811 165.713 216.755 165.465 216.597C165.216 216.416 165.081 216.167 165.058 215.851C165.036 215.512 165.182 215.151 165.499 214.766C165.951 214.201 166.256 213.637 166.414 213.072C166.572 212.507 166.651 212.01 166.651 211.58L166.821 212.699C166.03 212.699 165.386 212.473 164.889 212.021C164.414 211.569 164.177 210.959 164.177 210.191C164.177 209.445 164.403 208.846 164.855 208.394C165.307 207.92 165.917 207.683 166.685 207.683C167.476 207.683 168.097 207.954 168.549 208.496C169.001 209.016 169.227 209.773 169.227 210.767C169.227 211.309 169.171 211.874 169.058 212.462C168.967 213.026 168.775 213.625 168.481 214.258C168.21 214.868 167.804 215.501 167.261 216.156ZM184.11 232.086C181.806 232.086 179.783 231.578 178.043 230.561C176.326 229.544 174.993 228.121 174.044 226.29C173.095 224.437 172.62 222.268 172.62 219.783C172.62 217.907 172.892 216.224 173.434 214.732C173.976 213.219 174.744 211.931 175.739 210.869C176.755 209.784 177.964 208.959 179.365 208.394C180.789 207.807 182.371 207.513 184.11 207.513C186.438 207.513 188.46 208.021 190.177 209.038C191.895 210.033 193.228 211.445 194.177 213.275C195.126 215.105 195.6 217.263 195.6 219.749C195.6 221.624 195.329 223.319 194.787 224.833C194.245 226.347 193.465 227.646 192.448 228.731C191.454 229.815 190.245 230.651 188.822 231.239C187.421 231.804 185.85 232.086 184.11 232.086ZM184.11 228.358C185.579 228.358 186.822 228.019 187.839 227.341C188.878 226.663 189.669 225.68 190.211 224.392C190.776 223.104 191.059 221.568 191.059 219.783C191.059 217.071 190.449 214.97 189.228 213.478C188.031 211.987 186.325 211.241 184.11 211.241C182.664 211.241 181.422 211.58 180.382 212.258C179.343 212.914 178.541 213.885 177.976 215.173C177.433 216.438 177.162 217.975 177.162 219.783C177.162 222.472 177.772 224.573 178.992 226.087C180.213 227.601 181.919 228.358 184.11 228.358ZM202.181 232.018C201.481 232.018 200.938 231.826 200.554 231.442C200.193 231.035 200.012 230.482 200.012 229.781V209.818C200.012 209.095 200.193 208.541 200.554 208.157C200.938 207.773 201.481 207.581 202.181 207.581C202.882 207.581 203.413 207.773 203.774 208.157C204.158 208.541 204.35 209.095 204.35 209.818V229.781C204.35 230.482 204.17 231.035 203.808 231.442C203.447 231.826 202.904 232.018 202.181 232.018ZM217.814 232.086C216.82 232.086 215.826 232.007 214.831 231.849C213.837 231.713 212.899 231.499 212.018 231.205C211.137 230.889 210.346 230.504 209.646 230.053C209.239 229.781 208.956 229.454 208.798 229.07C208.64 228.685 208.584 228.313 208.629 227.951C208.696 227.567 208.843 227.239 209.069 226.968C209.318 226.674 209.623 226.494 209.984 226.426C210.346 226.358 210.741 226.46 211.171 226.731C212.165 227.318 213.216 227.748 214.323 228.019C215.43 228.29 216.594 228.426 217.814 228.426C219.599 228.426 220.898 228.132 221.712 227.544C222.525 226.934 222.932 226.155 222.932 225.206C222.932 224.415 222.638 223.793 222.051 223.342C221.486 222.89 220.503 222.517 219.102 222.223L215.374 221.443C213.227 220.992 211.623 220.235 210.561 219.173C209.521 218.088 209.002 216.664 209.002 214.902C209.002 213.795 209.227 212.789 209.679 211.885C210.131 210.982 210.764 210.202 211.577 209.547C212.414 208.891 213.396 208.394 214.526 208.055C215.679 207.694 216.944 207.513 218.322 207.513C219.678 207.513 220.966 207.683 222.186 208.021C223.406 208.36 224.502 208.858 225.474 209.513C225.835 209.761 226.073 210.066 226.186 210.428C226.321 210.789 226.355 211.151 226.287 211.513C226.22 211.852 226.061 212.145 225.813 212.394C225.564 212.642 225.248 212.789 224.864 212.834C224.502 212.88 224.084 212.767 223.61 212.495C222.774 212.021 221.926 211.682 221.068 211.479C220.209 211.275 219.283 211.174 218.288 211.174C217.249 211.174 216.357 211.321 215.611 211.614C214.865 211.908 214.289 212.326 213.882 212.868C213.498 213.388 213.306 214.009 213.306 214.732C213.306 215.546 213.577 216.201 214.12 216.698C214.662 217.173 215.588 217.546 216.899 217.817L220.593 218.596C222.83 219.071 224.491 219.817 225.576 220.833C226.683 221.85 227.236 223.206 227.236 224.901C227.236 225.985 227.01 226.968 226.559 227.849C226.129 228.731 225.497 229.488 224.661 230.12C223.847 230.753 222.864 231.239 221.712 231.578C220.559 231.917 219.26 232.086 217.814 232.086ZM231.032 232.018C230.489 232.018 230.049 231.894 229.71 231.646C229.394 231.397 229.201 231.069 229.134 230.663C229.066 230.233 229.145 229.759 229.371 229.239L238.319 209.411C238.613 208.756 238.963 208.293 239.37 208.021C239.799 207.728 240.285 207.581 240.827 207.581C241.347 207.581 241.81 207.728 242.217 208.021C242.646 208.293 243.008 208.756 243.301 209.411L252.283 229.239C252.532 229.759 252.622 230.233 252.554 230.663C252.487 231.092 252.295 231.431 251.978 231.679C251.662 231.905 251.244 232.018 250.724 232.018C250.091 232.018 249.594 231.872 249.233 231.578C248.894 231.261 248.589 230.787 248.318 230.154L246.115 225.036L247.945 226.223H233.642L235.472 225.036L233.303 230.154C233.009 230.809 232.704 231.284 232.388 231.578C232.071 231.872 231.619 232.018 231.032 232.018ZM240.759 212.563L236.014 223.85L235.133 222.765H246.453L245.606 223.85L240.827 212.563H240.759ZM258.05 232.018C257.395 232.018 256.886 231.838 256.525 231.476C256.186 231.115 256.016 230.595 256.016 229.917V209.75C256.016 209.05 256.186 208.519 256.525 208.157C256.886 207.773 257.349 207.581 257.914 207.581C258.434 207.581 258.818 207.683 259.067 207.886C259.338 208.067 259.654 208.383 260.016 208.835L272.997 225.68H272.116V209.648C272.116 208.993 272.285 208.485 272.624 208.123C272.986 207.762 273.494 207.581 274.15 207.581C274.805 207.581 275.302 207.762 275.641 208.123C275.98 208.485 276.149 208.993 276.149 209.648V229.985C276.149 230.617 275.991 231.115 275.675 231.476C275.358 231.838 274.929 232.018 274.387 232.018C273.867 232.018 273.449 231.917 273.133 231.713C272.839 231.51 272.511 231.182 272.15 230.73L259.202 213.885H260.05V229.917C260.05 230.595 259.88 231.115 259.541 231.476C259.202 231.838 258.705 232.018 258.05 232.018ZM289.607 232.086C288.613 232.086 287.618 232.007 286.624 231.849C285.63 231.713 284.692 231.499 283.811 231.205C282.93 230.889 282.139 230.504 281.438 230.053C281.032 229.781 280.749 229.454 280.591 229.07C280.433 228.685 280.376 228.313 280.422 227.951C280.489 227.567 280.636 227.239 280.862 226.968C281.111 226.674 281.416 226.494 281.777 226.426C282.139 226.358 282.534 226.46 282.964 226.731C283.958 227.318 285.009 227.748 286.116 228.019C287.223 228.29 288.387 228.426 289.607 228.426C291.392 228.426 292.691 228.132 293.505 227.544C294.318 226.934 294.725 226.155 294.725 225.206C294.725 224.415 294.431 223.793 293.844 223.342C293.279 222.89 292.296 222.517 290.895 222.223L287.166 221.443C285.02 220.992 283.416 220.235 282.353 219.173C281.314 218.088 280.794 216.664 280.794 214.902C280.794 213.795 281.02 212.789 281.472 211.885C281.924 210.982 282.557 210.202 283.37 209.547C284.206 208.891 285.189 208.394 286.319 208.055C287.471 207.694 288.737 207.513 290.115 207.513C291.471 207.513 292.759 207.683 293.979 208.021C295.199 208.36 296.295 208.858 297.267 209.513C297.628 209.761 297.866 210.066 297.979 210.428C298.114 210.789 298.148 211.151 298.08 211.513C298.012 211.852 297.854 212.145 297.606 212.394C297.357 212.642 297.041 212.789 296.657 212.834C296.295 212.88 295.877 212.767 295.403 212.495C294.567 212.021 293.719 211.682 292.861 211.479C292.002 211.275 291.076 211.174 290.081 211.174C289.042 211.174 288.149 211.321 287.404 211.614C286.658 211.908 286.082 212.326 285.675 212.868C285.291 213.388 285.099 214.009 285.099 214.732C285.099 215.546 285.37 216.201 285.912 216.698C286.455 217.173 287.381 217.546 288.692 217.817L292.386 218.596C294.623 219.071 296.284 219.817 297.368 220.833C298.476 221.85 299.029 223.206 299.029 224.901C299.029 225.985 298.803 226.968 298.351 227.849C297.922 228.731 297.289 229.488 296.453 230.12C295.64 230.753 294.657 231.239 293.505 231.578C292.352 231.917 291.053 232.086 289.607 232.086Z" fill="black"/>
<path d="M4.70778 272.321C4.03995 272.321 3.52715 272.13 3.16938 271.749C2.81161 271.367 2.63273 270.842 2.63273 270.174V248.672C2.63273 247.981 2.82354 247.456 3.20516 247.098C3.58678 246.717 4.1115 246.526 4.77934 246.526C5.37562 246.526 5.84072 246.645 6.17464 246.884C6.53241 247.098 6.8544 247.48 7.14061 248.028L15.9775 264.379H14.8326L23.6695 248.028C23.9558 247.48 24.2658 247.098 24.5997 246.884C24.9337 246.645 25.3988 246.526 25.995 246.526C26.6629 246.526 27.1757 246.717 27.5334 247.098C27.8912 247.456 28.0701 247.981 28.0701 248.672V270.174C28.0701 270.842 27.8912 271.367 27.5334 271.749C27.1995 272.13 26.6867 272.321 25.995 272.321C25.3272 272.321 24.8144 272.13 24.4566 271.749C24.0989 271.367 23.92 270.842 23.92 270.174V253.61H24.7071L17.1939 267.312C16.9554 267.718 16.705 268.016 16.4426 268.207C16.1802 268.397 15.8225 268.493 15.3693 268.493C14.9161 268.493 14.5464 268.397 14.2602 268.207C13.974 267.992 13.7236 267.694 13.5089 267.312L5.9242 253.574H6.78284V270.174C6.78284 270.842 6.60396 271.367 6.24619 271.749C5.91227 272.13 5.39947 272.321 4.70778 272.321ZM44.9269 272.393C42.494 272.393 40.3594 271.856 38.5228 270.783C36.7101 269.709 35.3029 268.207 34.3011 266.275C33.2994 264.319 32.7985 262.029 32.7985 259.406C32.7985 257.426 33.0847 255.649 33.6572 254.075C34.2296 252.477 35.0405 251.117 36.09 249.996C37.1633 248.851 38.4393 247.981 39.9181 247.385C41.4207 246.764 43.0903 246.454 44.9269 246.454C47.3836 246.454 49.5182 246.991 51.3309 248.064C53.1436 249.114 54.5509 250.604 55.5526 252.536C56.5544 254.468 57.0552 256.746 57.0552 259.37C57.0552 261.349 56.769 263.138 56.1966 264.736C55.6242 266.334 54.8013 267.706 53.728 268.851C52.6785 269.996 51.4025 270.878 49.8999 271.498C48.4211 272.094 46.7634 272.393 44.9269 272.393ZM44.9269 268.457C46.4772 268.457 47.789 268.099 48.8623 267.384C49.9595 266.668 50.7943 265.631 51.3667 264.271C51.963 262.912 52.2611 261.29 52.2611 259.406C52.2611 256.543 51.6172 254.325 50.3292 252.751C49.0651 251.177 47.2643 250.39 44.9269 250.39C43.4004 250.39 42.0886 250.748 40.9914 251.463C39.8943 252.155 39.0475 253.18 38.4513 254.54C37.8788 255.876 37.5926 257.497 37.5926 259.406C37.5926 262.244 38.2366 264.462 39.5246 266.06C40.8125 267.658 42.6133 268.457 44.9269 268.457ZM72.1945 272.393C70.4533 272.393 68.9149 272.166 67.5792 271.713C66.2674 271.26 65.1583 270.592 64.252 269.709C63.3456 268.803 62.6659 267.682 62.2127 266.346C61.7595 265.011 61.5329 263.46 61.5329 261.695V248.851C61.5329 248.064 61.7238 247.48 62.1054 247.098C62.5108 246.717 63.0833 246.526 63.8227 246.526C64.5621 246.526 65.1226 246.717 65.5042 247.098C65.9097 247.48 66.1124 248.064 66.1124 248.851V261.659C66.1124 263.925 66.6252 265.631 67.6508 266.776C68.7002 267.897 70.2148 268.457 72.1945 268.457C74.1741 268.457 75.6767 267.897 76.7023 266.776C77.728 265.631 78.2408 263.925 78.2408 261.659V248.851C78.2408 248.064 78.4316 247.48 78.8132 247.098C79.2187 246.717 79.7911 246.526 80.5305 246.526C81.246 246.526 81.7946 246.717 82.1762 247.098C82.5817 247.48 82.7844 248.064 82.7844 248.851V261.695C82.7844 264.033 82.3789 266 81.568 267.598C80.7809 269.196 79.6003 270.401 78.0261 271.212C76.4519 271.999 74.508 272.393 72.1945 272.393ZM90.2718 272.321C89.5802 272.321 89.0435 272.13 88.6619 271.749C88.3041 271.367 88.1252 270.818 88.1252 270.103V248.816C88.1252 248.076 88.3041 247.516 88.6619 247.134C89.0435 246.729 89.5325 246.526 90.1287 246.526C90.6773 246.526 91.0828 246.633 91.3452 246.848C91.6314 247.039 91.9653 247.373 92.3469 247.85L106.049 265.631H105.119V248.708C105.119 248.017 105.298 247.48 105.656 247.098C106.038 246.717 106.574 246.526 107.266 246.526C107.958 246.526 108.482 246.717 108.84 247.098C109.198 247.48 109.377 248.017 109.377 248.708V270.174C109.377 270.842 109.21 271.367 108.876 271.749C108.542 272.13 108.089 272.321 107.516 272.321C106.968 272.321 106.526 272.214 106.193 271.999C105.882 271.784 105.537 271.439 105.155 270.961L91.4883 253.18H92.3827V270.103C92.3827 270.818 92.2038 271.367 91.846 271.749C91.4883 272.13 90.9635 272.321 90.2718 272.321ZM123.26 272.321C122.52 272.321 121.948 272.118 121.543 271.713C121.161 271.283 120.97 270.699 120.97 269.96V250.64H113.994C113.373 250.64 112.885 250.473 112.527 250.139C112.193 249.782 112.026 249.305 112.026 248.708C112.026 248.088 112.193 247.623 112.527 247.313C112.885 246.979 113.373 246.812 113.994 246.812H132.526C133.146 246.812 133.623 246.979 133.957 247.313C134.315 247.623 134.494 248.088 134.494 248.708C134.494 249.305 134.315 249.782 133.957 250.139C133.623 250.473 133.146 250.64 132.526 250.64H125.55V269.96C125.55 270.699 125.359 271.283 124.977 271.713C124.595 272.118 124.023 272.321 123.26 272.321ZM134.564 272.321C133.992 272.321 133.527 272.19 133.169 271.927C132.835 271.665 132.632 271.319 132.561 270.89C132.489 270.437 132.573 269.936 132.811 269.387L142.256 248.458C142.566 247.766 142.936 247.277 143.365 246.991C143.818 246.681 144.331 246.526 144.904 246.526C145.452 246.526 145.941 246.681 146.371 246.991C146.824 247.277 147.205 247.766 147.515 248.458L156.996 269.387C157.259 269.936 157.354 270.437 157.283 270.89C157.211 271.343 157.008 271.701 156.674 271.963C156.34 272.202 155.899 272.321 155.351 272.321C154.683 272.321 154.158 272.166 153.776 271.856C153.419 271.522 153.097 271.021 152.81 270.353L150.485 264.951L152.417 266.203H137.319L139.251 264.951L136.961 270.353C136.651 271.045 136.329 271.546 135.995 271.856C135.661 272.166 135.184 272.321 134.564 272.321ZM144.832 251.785L139.823 263.699L138.893 262.554H150.843L149.948 263.699L144.904 251.785H144.832ZM163.227 272.321C162.487 272.321 161.915 272.118 161.509 271.713C161.128 271.283 160.937 270.699 160.937 269.96V248.887C160.937 248.124 161.128 247.54 161.509 247.134C161.915 246.729 162.487 246.526 163.227 246.526C163.966 246.526 164.526 246.729 164.908 247.134C165.314 247.54 165.516 248.124 165.516 248.887V269.96C165.516 270.699 165.325 271.283 164.944 271.713C164.562 272.118 163.99 272.321 163.227 272.321ZM173.181 272.321C172.489 272.321 171.952 272.13 171.571 271.749C171.213 271.367 171.034 270.818 171.034 270.103V248.816C171.034 248.076 171.213 247.516 171.571 247.134C171.952 246.729 172.441 246.526 173.037 246.526C173.586 246.526 173.992 246.633 174.254 246.848C174.54 247.039 174.874 247.373 175.256 247.85L188.958 265.631H188.028V248.708C188.028 248.017 188.207 247.48 188.565 247.098C188.946 246.717 189.483 246.526 190.175 246.526C190.866 246.526 191.391 246.717 191.749 247.098C192.107 247.48 192.285 248.017 192.285 248.708V270.174C192.285 270.842 192.118 271.367 191.785 271.749C191.451 272.13 190.997 272.321 190.425 272.321C189.876 272.321 189.435 272.214 189.101 271.999C188.791 271.784 188.445 271.439 188.064 270.961L174.397 253.18H175.291V270.103C175.291 270.818 175.113 271.367 174.755 271.749C174.397 272.13 173.872 272.321 173.181 272.321ZM209.942 272.035C209.155 272.035 208.547 271.832 208.118 271.427C207.712 270.997 207.51 270.389 207.51 269.602V249.245C207.51 248.458 207.712 247.862 208.118 247.456C208.547 247.027 209.155 246.812 209.942 246.812H218.529C220.294 246.812 221.797 247.074 223.037 247.599C224.277 248.124 225.219 248.875 225.863 249.853C226.531 250.831 226.865 252 226.865 253.359C226.865 254.886 226.424 256.174 225.541 257.223C224.659 258.273 223.454 258.976 221.928 259.334V258.797C223.693 259.06 225.064 259.728 226.042 260.801C227.02 261.874 227.509 263.269 227.509 264.987C227.509 267.229 226.746 268.97 225.219 270.21C223.717 271.427 221.618 272.035 218.922 272.035H209.942ZM211.91 268.564H218.35C219.972 268.564 221.164 268.254 221.928 267.634C222.691 266.99 223.073 266.036 223.073 264.772C223.073 263.484 222.691 262.53 221.928 261.91C221.164 261.29 219.972 260.98 218.35 260.98H211.91V268.564ZM211.91 257.509H217.742C219.316 257.509 220.485 257.211 221.248 256.615C222.035 255.995 222.429 255.088 222.429 253.896C222.429 252.703 222.035 251.809 221.248 251.213C220.485 250.593 219.316 250.282 217.742 250.282H211.91V257.509ZM232.217 272.321C231.645 272.321 231.179 272.19 230.822 271.927C230.488 271.665 230.285 271.319 230.213 270.89C230.142 270.437 230.225 269.936 230.464 269.387L239.909 248.458C240.219 247.766 240.589 247.277 241.018 246.991C241.471 246.681 241.984 246.526 242.556 246.526C243.105 246.526 243.594 246.681 244.023 246.991C244.476 247.277 244.858 247.766 245.168 248.458L254.649 269.387C254.911 269.936 255.007 270.437 254.935 270.89C254.864 271.343 254.661 271.701 254.327 271.963C253.993 272.202 253.552 272.321 253.003 272.321C252.335 272.321 251.811 272.166 251.429 271.856C251.071 271.522 250.749 271.021 250.463 270.353L248.138 264.951L250.07 266.203H234.972L236.904 264.951L234.614 270.353C234.304 271.045 233.982 271.546 233.648 271.856C233.314 272.166 232.837 272.321 232.217 272.321ZM242.485 251.785L237.476 263.699L236.546 262.554H248.495L247.601 263.699L242.556 251.785H242.485ZM267.004 272.393C265.954 272.393 264.905 272.309 263.855 272.142C262.806 271.999 261.816 271.772 260.886 271.462C259.956 271.128 259.121 270.723 258.382 270.246C257.952 269.96 257.654 269.614 257.487 269.208C257.32 268.803 257.261 268.409 257.308 268.028C257.38 267.622 257.535 267.276 257.773 266.99C258.036 266.68 258.358 266.489 258.739 266.418C259.121 266.346 259.538 266.454 259.992 266.74C261.041 267.36 262.15 267.813 263.319 268.099C264.488 268.386 265.716 268.529 267.004 268.529C268.888 268.529 270.26 268.219 271.118 267.598C271.977 266.954 272.406 266.132 272.406 265.13C272.406 264.295 272.096 263.639 271.476 263.162C270.88 262.685 269.842 262.292 268.363 261.981L264.428 261.159C262.162 260.682 260.469 259.883 259.348 258.762C258.25 257.617 257.702 256.114 257.702 254.254C257.702 253.085 257.94 252.024 258.417 251.07C258.894 250.115 259.562 249.293 260.421 248.601C261.303 247.909 262.341 247.385 263.533 247.027C264.75 246.645 266.086 246.454 267.54 246.454C268.972 246.454 270.331 246.633 271.619 246.991C272.907 247.349 274.064 247.873 275.089 248.565C275.471 248.828 275.721 249.15 275.841 249.531C275.984 249.913 276.02 250.294 275.948 250.676C275.876 251.034 275.71 251.344 275.447 251.606C275.185 251.869 274.851 252.024 274.445 252.071C274.064 252.119 273.623 252 273.122 251.714C272.239 251.213 271.345 250.855 270.438 250.64C269.532 250.426 268.554 250.318 267.505 250.318C266.408 250.318 265.465 250.473 264.678 250.783C263.891 251.093 263.283 251.535 262.854 252.107C262.448 252.656 262.245 253.312 262.245 254.075C262.245 254.933 262.532 255.625 263.104 256.15C263.677 256.651 264.654 257.044 266.038 257.33L269.938 258.153C272.299 258.654 274.052 259.441 275.197 260.515C276.365 261.588 276.95 263.019 276.95 264.808C276.95 265.953 276.711 266.99 276.234 267.92C275.781 268.851 275.113 269.65 274.231 270.317C273.372 270.985 272.335 271.498 271.118 271.856C269.902 272.214 268.53 272.393 267.004 272.393ZM283.313 272.035C282.526 272.035 281.918 271.832 281.488 271.427C281.083 270.997 280.88 270.389 280.88 269.602V249.245C280.88 248.458 281.083 247.862 281.488 247.456C281.918 247.027 282.526 246.812 283.313 246.812H296.085C296.682 246.812 297.135 246.967 297.445 247.277C297.779 247.587 297.946 248.028 297.946 248.601C297.946 249.197 297.779 249.662 297.445 249.996C297.135 250.306 296.682 250.461 296.085 250.461H285.281V257.402H295.298C295.918 257.402 296.384 257.557 296.694 257.867C297.004 258.177 297.159 258.63 297.159 259.227C297.159 259.823 297.004 260.276 296.694 260.586C296.384 260.896 295.918 261.051 295.298 261.051H285.281V268.386H296.085C296.682 268.386 297.135 268.541 297.445 268.851C297.779 269.161 297.946 269.614 297.946 270.21C297.946 270.806 297.779 271.26 297.445 271.57C297.135 271.88 296.682 272.035 296.085 272.035H283.313Z" fill="black"/>
</svg>
